<svg id="ps4" style="width:75%; margin-left:52%;" version="1.1" viewBox="0 0 300 300" xml:space="preserve" xmlns="http://www.w3.org/2000/svg" xmlns:xlink="http://www.w3.org/1999/xlink">
		  <g>
		    <rect height="6" fill="rgba(238, 14, 255, 1)" width="6" x="24" y="0"/>
		    <rect height="6" fill="rgba(238, 14, 255, 1)" width="6" x="30" y="0"/>
		    <rect height="6" fill="rgba(238, 14, 255, 1)" width="6" x="36" y="0"/>
		    <rect height="6" fill="rgba(238, 14, 255, 1)" width="6" x="42" y="0"/>
		    <rect height="6" fill="rgba(238, 14, 255, 1)" width="6" x="48" y="0"/>
		    
		    <rect height="6" fill="rgba(238, 14, 255, 1)" width="6" x="18" y="6"/>
		    <rect height="6" fill="rgba(238, 14, 255, 1)" width="6" x="24" y="6"/>
		    <rect height="6" fill="rgba(238, 14, 255, 1)" width="6" x="30" y="6"/>
		    <rect height="6" fill="rgba(238, 14, 255, 1)" width="6" x="36" y="6"/>
		    <rect height="6" fill="rgba(238, 14, 255, 1)" width="6" x="42" y="6"/>
		    <rect height="6" fill="rgba(238, 14, 255, 1)" width="6" x="48" y="6"/>
		    <rect height="6" fill="rgba(238, 14, 255, 1)" width="6" x="54" y="6"/>
		    <rect height="6" fill="rgba(238, 14, 255, 1)" width="6" x="60" y="6"/>
		    <rect height="6" fill="rgba(238, 14, 255, 1)" width="6" x="66" y="6"/>
		    
		    <rect height="6" fill="#262E36" width="6" x="18" y="12"/>
		    <rect height="6" fill="#262E36" width="6" x="24" y="12"/>
		    <rect height="6" fill="#262E36" width="6" x="30" y="12"/>
		    <rect height="6" fill="lightgrey" width="6" x="36" y="12"/>
		    <rect height="6" fill="lightgrey" width="6" x="42" y="12"/>
		    <rect height="6" fill="#262E36" width="6" x="48" y="12"/>
		    <rect height="6" fill="lightgrey" width="6" x="54" y="12"/>
		    
		    <rect height="6" fill="#262E36" width="6" x="12" y="18"/>
		    <rect height="6" fill="lightgrey" width="6" x="18" y="18"/>
		    <rect height="6" fill="#262E36" width="6" x="24" y="18"/>
		    <rect height="6" fill="lightgrey" width="6" x="30" y="18"/>
		    <rect height="6" fill="lightgrey" width="6" x="36" y="18"/>
		    <rect height="6" fill="lightgrey" width="6" x="42" y="18"/>
		    <rect height="6" fill="#262E36" width="6" x="48" y="18"/>
		    <rect height="6" fill="lightgrey" width="6" x="54" y="18"/>
		    <rect height="6" fill="lightgrey" width="6" x="60" y="18"/>
		    <rect height="6" fill="lightgrey" width="6" x="66" y="18"/>
		    
		    <rect height="6" fill="#262E36" width="6" x="12" y="24"/>
		    <rect height="6" fill="lightgrey" width="6" x="18" y="24"/>
		    <rect height="6" fill="#262E36" width="6" x="24" y="24"/>
		    <rect height="6" fill="#262E36" width="6" x="30" y="24"/>
		    <rect height="6" fill="lightgrey" width="6" x="36" y="24"/>
		    <rect height="6" fill="lightgrey" width="6" x="42" y="24"/>
		    <rect height="6" fill="lightgrey" width="6" x="48" y="24"/>
		    <rect height="6" fill="#262E36" width="6" x="54" y="24"/>
		    <rect height="6" fill="lightgrey" width="6" x="60" y="24"/>
		    <rect height="6" fill="lightgrey" width="6" x="66" y="24"/>
		    <rect height="6" fill="lightgrey" width="6" x="72" y="24"/>

		    <rect height="6" fill="#262E36" width="6" x="12" y="30"/>
		    <rect height="6" fill="#262E36" width="6" x="18" y="30"/>
		    <rect height="6" fill="lightgrey" width="6" x="24" y="30"/>
		    <rect height="6" fill="lightgrey" width="6" x="30" y="30"/>
		    <rect height="6" fill="lightgrey" width="6" x="36" y="30"/>
		    <rect height="6" fill="lightgrey" width="6" x="42" y="30"/>
		    <rect height="6" fill="#262E36" width="6" x="48" y="30"/>
		    <rect height="6" fill="#262E36" width="6" x="54" y="30"/>
		    <rect height="6" fill="#262E36" width="6" x="60" y="30"/>
		    <rect height="6" fill="#262E36" width="6" x="66" y="30"/>
		    
		    <rect height="6" fill="#262E36" width="6" x="12" y="30"/>
		    <rect height="6" fill="#262E36" width="6" x="18" y="30"/>
		    <rect height="6" fill="lightgrey" width="6" x="24" y="30"/>
		    <rect height="6" fill="lightgrey" width="6" x="30" y="30"/>
		    <rect height="6" fill="lightgrey" width="6" x="36" y="30"/>
		    <rect height="6" fill="lightgrey" width="6" x="42" y="30"/>
		    <rect height="6" fill="#262E36" width="6" x="48" y="30"/>
		    <rect height="6" fill="#262E36" width="6" x="54" y="30"/>
		    <rect height="6" fill="#262E36" width="6" x="60" y="30"/>
		    <rect height="6" fill="#262E36" width="6" x="66" y="30"/>

		    <rect height="6" fill="lightgrey" width="6" x="24" y="36"/>
		    <rect height="6" fill="lightgrey" width="6" x="30" y="36"/>
		    <rect height="6" fill="lightgrey" width="6" x="36" y="36"/>
		    <rect height="6" fill="lightgrey" width="6" x="42" y="36"/>
		    <rect height="6" fill="lightgrey" width="6" x="48" y="36"/>
		    <rect height="6" fill="lightgrey" width="6" x="54" y="36"/>
		    <rect height="6" fill="lightgrey" width="6" x="60" y="36"/>
		  
		    <rect height="6" fill="#0432ff" width="6" x="18" y="42"/>
		    <rect height="6" fill="#0432ff" width="6" x="24" y="42"/>
		    <rect height="6" fill="rgba(238, 14, 255, 1)" width="6" x="30" y="42"/>
		    <rect height="6" fill="#0432ff" width="6" x="36" y="42"/>
		    <rect height="6" fill="#0432ff" width="6" x="42" y="42"/>
		    <rect height="6" fill="#0432ff" width="6" x="48" y="42"/>
		    
		    <rect height="6" fill="#0432ff" width="6" x="12" y="48"/>
		    <rect height="6" fill="#0432ff" width="6" x="18" y="48"/>
		    <rect height="6" fill="#0432ff" width="6" x="24" y="48"/>
		    <rect height="6" fill="rgba(238, 14, 255, 1)" width="6" x="30" y="48"/>
		    <rect height="6" fill="#0432ff" width="6" x="36" y="48"/>
		    <rect height="6" fill="#0432ff" width="6" x="42" y="48"/>
		    <rect height="6" fill="rgba(238, 14, 255, 1)" width="6" x="48" y="48"/>
		    <rect height="6" fill="#0432ff" width="6" x="54" y="48"/>
		    <rect height="6" fill="#0432ff" width="6" x="60" y="48"/>
		    <rect height="6" fill="#0432ff" width="6" x="66" y="48"/>
		    
		    <rect height="6" fill="#0432ff" width="6" x="6" y="54"/>
		    <rect height="6" fill="#0432ff" width="6" x="12" y="54"/>
		    <rect height="6" fill="#0432ff" width="6" x="18" y="54"/>
		    <rect height="6" fill="#0432ff" width="6" x="24" y="54"/>
		    <rect height="6" fill="rgba(238, 14, 255, 1)" width="6" x="30" y="54"/>
		    <rect height="6" fill="#0432ff" width="6" x="36" y="54"/>
		    <rect height="6" fill="#0432ff" width="6" x="42" y="54"/>
		    <rect height="6" fill="rgba(238, 14, 255, 1)" width="6" x="48" y="54"/>
		    <rect height="6" fill="#0432ff" width="6" x="54" y="54"/>
		    <rect height="6" fill="#0432ff" width="6" x="60" y="54"/>
		    <rect height="6" fill="#0432ff" width="6" x="66" y="54"/>
		    <rect height="6" fill="#0432ff" width="6" x="72" y="54"/>
		    
		    <rect height="6" fill="lightgrey" width="6" x="6" y="60"/>
		    <rect height="6" fill="lightgrey" width="6" x="12" y="60"/>
		    <rect height="6" fill="#0432ff" width="6" x="18" y="60"/>
		    <rect height="6" fill="#0432ff" width="6" x="24" y="60"/>
		    <rect height="6" fill="rgba(238, 14, 255, 1)" width="6" x="30" y="60"/>
		    <rect height="6" fill="rgba(238, 14, 255, 1)" width="6" x="36" y="60"/>
		    <rect height="6" fill="rgba(238, 14, 255, 1)" width="6" x="42" y="60"/>
		    <rect height="6" fill="rgba(238, 14, 255, 1)" width="6" x="48" y="60"/>
		    <rect height="6" fill="#0432ff" width="6" x="54" y="60"/>
		    <rect height="6" fill="#0432ff" width="6" x="60" y="60"/>
		    <rect height="6" fill="lightgrey" width="6" x="66" y="60"/>
		    <rect height="6" fill="lightgrey" width="6" x="72" y="60"/>

		    <rect height="6" fill="lightgrey" width="6" x="6" y="66"/>
		    <rect height="6" fill="lightgrey" width="6" x="12" y="66"/>
		    <rect height="6" fill="lightgrey" width="6" x="18" y="66"/>
		    <rect height="6" fill="rgba(238, 14, 255, 1)" width="6" x="24" y="66"/>
		    <rect height="6" fill="yellowgreen" width="6" x="30" y="66"/>
		    <rect height="6" fill="rgba(238, 14, 255, 1)" width="6" x="36" y="66"/>
		    <rect height="6" fill="rgba(238, 14, 255, 1)" width="6" x="42" y="66"/>
		    <rect height="6" fill="yellowgreen" width="6" x="48" y="66"/>
		    <rect height="6" fill="rgba(238, 14, 255, 1)" width="6" x="54" y="66"/>
		    <rect height="6" fill="lightgrey" width="6" x="60" y="66"/>
		    <rect height="6" fill="lightgrey" width="6" x="66" y="66"/>
		    <rect height="6" fill="lightgrey" width="6" x="72" y="66"/>
		    
		    <rect height="6" fill="lightgrey" width="6" x="6" y="72"/>
		    <rect height="6" fill="lightgrey" width="6" x="12" y="72"/>
		    <rect height="6" fill="rgba(238, 14, 255, 1)" width="6" x="18" y="72"/>
		    <rect height="6" fill="rgba(238, 14, 255, 1)" width="6" x="24" y="72"/>
		    <rect height="6" fill="rgba(238, 14, 255, 1)" width="6" x="30" y="72"/>
		    <rect height="6" fill="rgba(238, 14, 255, 1)" width="6" x="36" y="72"/>
		    <rect height="6" fill="rgba(238, 14, 255, 1)" width="6" x="42" y="72"/>
		    <rect height="6" fill="rgba(238, 14, 255, 1)" width="6" x="48" y="72"/>
		    <rect height="6" fill="rgba(238, 14, 255, 1)" width="6" x="54" y="72"/>
		    <rect height="6" fill="rgba(238, 14, 255, 1)" width="6" x="60" y="72"/>
		    <rect height="6" fill="lightgrey" width="6" x="66" y="72"/>
		    <rect height="6" fill="lightgrey" width="6" x="72" y="72"/>
		    
		    <rect height="6" fill="rgba(238, 14, 255, 1)" width="6" x="18" y="78"/>
		    <rect height="6" fill="rgba(238, 14, 255, 1)" width="6" x="24" y="78"/>
		    <rect height="6" fill="rgba(238, 14, 255, 1)" width="6" x="30" y="78"/>
		    <rect height="6" fill="rgba(238, 14, 255, 1)" width="6" x="48" y="78"/>
		    <rect height="6" fill="rgba(238, 14, 255, 1)" width="6" x="54" y="78"/>
		    <rect height="6" fill="rgba(238, 14, 255, 1)" width="6" x="60" y="78"/>
		    
		    <rect height="6" fill="#262E36" width="6" x="12" y="84"/>
		    <rect height="6" fill="#262E36" width="6" x="18" y="84"/>
		    <rect height="6" fill="#262E36" width="6" x="24" y="84"/>
		    <rect height="6" fill="#262E36" width="6" x="54" y="84"/>
		    <rect height="6" fill="#262E36" width="6" x="60" y="84"/>
		    <rect height="6" fill="#262E36" width="6" x="66" y="84"/>
		    
		    <rect height="6" fill="#262E36" width="6" x="6" y="90"/>
		    <rect height="6" fill="#262E36" width="6" x="12" y="90"/>
		    <rect height="6" fill="#262E36" width="6" x="18" y="90"/>
		    <rect height="6" fill="#262E36" width="6" x="24" y="90"/>
		    <rect height="6" fill="#262E36" width="6" x="54" y="90"/>
		    <rect height="6" fill="#262E36" width="6" x="60" y="90"/>
		    <rect height="6" fill="#262E36" width="6" x="66" y="90"/>
		    <rect height="6" fill="#262E36" width="6" x="72" y="90"/>
		    
		  </g>
		</svg>